<svg width="58" height="61" viewBox="0 0 58 61" fill="none" xmlns="http://www.w3.org/2000/svg">
<path d="M21.7256 55.3917C17.6823 54.2545 14.1264 52.1607 11.0217 49.2365C10.0469 49.5794 9.05415 49.9224 8.04332 50.2473C7.57401 50.3917 7.10469 50.3375 6.61733 50.157C5.7509 49.8321 5.22744 49.2004 4.84838 48.4242C4.32491 47.3953 3.65704 46.4567 3.13357 45.4278C2.66426 44.4711 1.97834 43.6408 1.58123 42.648C1.38267 42.1607 0.859206 41.8357 0.859206 41.222C0.389892 40.4639 0.841155 39.796 1.11191 39.1282C1.18412 38.9477 1.27437 38.713 1.43682 38.6408C2.08664 38.352 2.41155 37.7022 2.95307 37.3051C3.20578 37.1245 3.47653 36.926 3.76534 36.7094C3.35018 34.6336 2.98917 32.5578 2.98917 30.4278C2.98917 28.3159 3.36823 26.2762 3.76534 24.2545C3.06137 23.6047 2.41155 22.9729 1.72563 22.3773C1.02166 21.7635 0.606498 21.0054 0.696751 20.2112C0.750903 19.778 0.877256 19.3087 1.09386 18.9477C1.76173 17.8827 2.37545 16.7635 3.02527 15.6805C3.54874 14.8141 4 13.9116 4.57762 13.0632C4.88448 12.63 5.06498 12.1245 5.37184 11.6733C5.96751 10.8249 7.15884 10.4097 8.13357 10.6986C9 10.9513 9.81227 11.3303 10.6968 11.4928C10.787 11.5108 10.8592 11.6372 10.9495 11.7274C14.0722 8.8213 17.6282 6.74549 21.7076 5.5361C21.87 5.04874 21.9061 4.52527 22.1047 4.01986C22.2491 3.64079 22.213 3.17148 22.2852 2.75632C22.4838 1.67329 23.1516 1.04152 24.1083 0.716606C24.4513 0.608303 24.7942 0.5 25.2094 0.5C27.7365 0.536101 30.2635 0.536101 32.7906 0.5C33.5126 0.5 34.1264 0.788809 34.704 1.11372C35.2274 1.38448 35.5162 1.96209 35.6607 2.50361C35.9134 3.49639 36.0578 4.50722 36.2563 5.55415C40.3177 6.70939 43.8736 8.7852 46.9783 11.7094C47.9531 11.3664 48.9459 11.0235 49.9567 10.6986C50.426 10.5542 50.8953 10.6083 51.3827 10.7888C52.2491 11.1137 52.7726 11.7455 53.1516 12.5217C53.6751 13.5505 54.343 14.4892 54.8664 15.5181C55.3357 16.4747 56.0217 17.3051 56.4188 18.2978C56.6173 18.7852 57.1408 19.1101 57.1408 19.7238C57.6101 20.482 57.1588 21.1498 56.8881 21.8177C56.8159 21.9982 56.7256 22.2329 56.5632 22.3051C55.9134 22.5939 55.5885 23.2437 55.0469 23.6408C54.7942 23.8213 54.5235 24.0199 54.2347 24.2365C54.6498 26.3123 55.0108 28.3881 55.0108 30.518C55.0108 32.63 54.6859 34.6697 54.2347 36.6913C54.9386 37.3412 55.5885 37.9729 56.2744 38.5686C56.9783 39.1823 57.3935 39.9404 57.3033 40.7347C57.2491 41.1679 57.1408 41.6372 56.9061 41.9982C56.2563 43.0451 55.6426 44.1282 55.0108 45.1931C54.2166 46.5108 53.5668 47.9368 52.6462 49.1823C52.4838 49.8682 51.8339 49.9224 51.3646 50.1751C50.8592 50.4458 50.3538 50.3736 49.7942 50.2112C48.9639 49.9765 48.1697 49.5614 47.3033 49.4531C47.213 49.435 47.1408 49.3087 47.0505 49.2184C43.9278 52.1607 40.3899 54.2545 36.2563 55.4278C36.0578 56.4025 35.8773 57.4134 35.6607 58.4061C35.444 59.3809 34.7942 59.9946 33.8736 60.2834C33.5307 60.3917 33.1697 60.5 32.7726 60.5C30.2455 60.4639 27.7184 60.4639 25.1913 60.5C24.4693 60.5 23.8556 60.2112 23.278 59.8863C22.7545 59.6155 22.4477 59.0379 22.3394 58.4964C22.1408 57.4314 21.9422 56.4386 21.7256 55.3917ZM22.8989 39.4892C23.2599 39.2906 23.6751 39.1643 23.6931 38.731C23.7292 38.0812 23.8195 37.4134 23.6751 36.7996C23.4224 35.7527 22.9711 34.7419 22.7004 33.6949C22.5199 33.0271 22.1227 32.3953 22.1408 31.6733C21.5632 30.2473 21.2022 28.7491 20.7148 27.3051C20.3177 26.1137 20.0289 24.8863 19.5957 23.713C19.361 23.0632 19.3069 22.3412 18.8736 21.7635C18.8375 21.7094 18.8195 21.6733 18.8195 21.6733C18.3321 21.3484 17.8267 21.4567 17.3935 21.4567C17.1408 21.6913 16.9242 21.8899 16.7256 22.0704C16.7076 22.648 16.2924 23.0993 16.3646 23.6588C15.7329 25.0668 15.4621 26.583 14.9386 28.0271C14.6679 28.7671 14.5054 29.5253 14.2888 30.2834C14.0903 31.0415 13.657 31.7274 13.657 32.5397C12.9711 34.074 12.6282 35.7166 12.1227 37.3231C11.9964 37.7202 11.9242 38.0993 12.1769 38.4783C12.2491 38.5866 12.213 38.7491 12.213 38.731C12.5018 39.0379 12.7184 39.2545 12.8989 39.4711C13.2419 39.4711 13.6029 39.4711 13.982 39.4711C14.2347 39.1462 14.4874 38.8394 14.722 38.5325C14.6679 37.5036 14.8845 36.8177 15.3538 35.7166C17.1227 35.7166 18.8917 35.7166 20.6607 35.7166C20.8051 36.2942 20.8773 36.8538 21.0758 37.3773C21.1661 37.5939 21.2563 37.8105 21.2202 38.0271C21.1661 38.6949 21.3827 39.2184 22.1408 39.4711C22.3213 39.4892 22.5921 39.4892 22.8989 39.4892ZM27.1227 39.4892C27.6101 39.4531 28.1697 39.5975 28.5668 39.2004C28.7112 39.0199 28.8375 38.8394 29.0181 38.5866C29.0181 36.7816 29.0181 34.8863 29.0181 32.991C30.3357 32.991 31.6354 32.9368 32.917 33.009C33.6931 33.0451 34.3249 32.8105 34.9386 32.4314C35.2274 32.2509 35.4801 31.9801 35.7329 31.7274C36.4007 31.0776 36.7256 30.2834 36.7437 29.3448C36.7437 27.8646 36.7437 26.4025 36.7437 24.9224C36.7437 24.7058 36.6895 24.4711 36.6354 24.2545C36.4368 23.4783 36.0217 22.9007 35.4621 22.3953C34.8123 21.7996 34.0542 21.4386 33.1516 21.4386C31.13 21.4386 29.1264 21.4386 27.0866 21.4386C26.8881 21.6552 26.6895 21.8718 26.4549 22.0884C26.4549 27.648 26.4549 33.2437 26.4549 38.8574C26.6895 39.056 26.9061 39.2726 27.1227 39.4892ZM40.1191 39.4892C41.3646 39.4892 42.6282 39.4892 43.8736 39.4892C44.0903 39.2726 44.3069 39.056 44.5235 38.8574C44.5235 38.5144 44.5235 38.1895 44.5235 37.8466C44.5235 37.8105 44.5235 37.7924 44.5235 37.7744C44.2527 37.269 43.8375 36.9621 43.296 36.9079C43.296 32.5939 43.296 28.2978 43.296 24.0921C43.6931 23.8935 44.0361 23.713 44.4332 23.4964C44.4874 23.0271 44.5235 22.5397 44.5596 22.1968C44.2708 21.8718 44.0722 21.6372 43.9097 21.4567C42.6101 21.4567 41.3466 21.4567 40.2274 21.4567C39.9206 21.7274 39.704 21.926 39.4332 22.1787C39.4874 22.6119 39.5596 23.0993 39.6137 23.5144C40.0469 23.731 40.3899 23.9116 40.6968 24.074C40.6968 28.37 40.6968 32.6661 40.6968 36.926C40.5162 36.9621 40.3177 36.926 40.2455 37.0162C39.9928 37.269 39.5596 37.3412 39.4693 37.7563C39.4693 38.1173 39.4693 38.4783 39.4693 38.8394C39.6859 39.056 39.9025 39.2726 40.1191 39.4892Z" fill="white"/>
<path d="M19.7039 32.9549C18.6389 32.991 17.5198 33.009 16.4006 33.0451C16.3645 33.0451 16.3104 33.1173 16.2021 33.2076C16.2201 32.0885 16.8519 31.1859 16.9241 30.1571C17.4656 29.2545 17.5198 28.1895 17.8808 27.1787C17.9891 27.287 18.1515 27.3953 18.1515 27.4856C18.1696 28.2617 18.6208 28.9296 18.7652 29.6697C18.8736 30.1751 19.1624 30.6625 19.2346 31.1679C19.3068 31.8177 19.74 32.3051 19.7039 32.9549Z" fill="white"/>
<path d="M34.2349 29.4534C34.1085 29.6519 34.0002 29.8505 33.8558 30.031C33.6031 30.3198 33.2782 30.4823 32.863 30.4642C31.5995 30.4462 30.3359 30.4642 29.0363 30.4642C29.0363 28.3162 29.0363 26.1682 29.0363 23.966C30.354 23.966 31.7078 23.948 33.0435 23.966C33.6753 23.9841 34.2168 24.6339 34.2349 25.3198C34.2349 26.457 34.2349 27.5942 34.2349 28.7314C34.2349 28.9841 34.2349 29.2187 34.2349 29.4534Z" fill="white"/>
</svg>
