<svg width="36" height="50" viewBox="0 0 36 50" fill="none" xmlns="http://www.w3.org/2000/svg">
<path d="M29.7476 28.6258C28.0072 31.0127 26.1577 33.5494 25.1138 36.4902H10.891C9.84183 33.5144 7.95586 30.9404 6.18441 28.5226L6.15409 28.4812L6.15341 28.4803C5.64291 27.7852 5.14119 27.102 4.65994 26.4109L4.65888 26.4094C2.83384 23.799 1.76431 20.6191 1.76431 17.1875C1.76431 8.25023 9.03084 1 18 1C26.9688 1 34.2357 8.24986 34.2357 17.1973C34.2357 20.628 33.1666 23.7989 31.3402 26.4206L31.34 26.4207C30.8588 27.1118 30.3571 27.795 29.8466 28.4901L29.8445 28.493C29.8122 28.5372 29.78 28.5814 29.7476 28.6258ZM24.8344 42.1875C24.8344 45.949 21.7788 49 18 49C14.2211 49 11.1656 45.949 11.1656 42.1875V41.625H24.8344V42.1875ZM8.59871 19.75C10.0101 19.75 11.1656 18.6018 11.1656 17.1875C11.1656 13.426 14.2211 10.375 18 10.375C19.4114 10.375 20.5669 9.2268 20.5669 7.8125C20.5669 6.3982 19.4114 5.25 18 5.25C11.3885 5.25 6.03183 10.5877 6.03183 17.1875C6.03183 18.6018 7.18728 19.75 8.59871 19.75Z" stroke="#00BEE8" stroke-width="2"/>
</svg>
