<svg width="25" height="25" viewBox="0 0 25 25" fill="none" xmlns="http://www.w3.org/2000/svg">
<path d="M12.4717 0C5.61225 0 0 5.61225 0 12.4717C0 19.3878 5.61225 25 12.4717 25C19.3878 25 24.9433 19.3878 24.9433 12.4717C25 5.61225 19.3878 0 12.4717 0ZM20.1247 6.46258L11.9615 19.898C11.678 20.3515 11.2245 20.6916 10.6576 20.6916C10.6009 20.6916 10.5442 20.6916 10.4875 20.6916C9.97732 20.6916 9.52381 20.4649 9.18367 20.1247L5.04535 15.3061C4.42177 14.6259 4.47846 13.5488 5.21542 12.9252C5.89569 12.3016 7.02948 12.3583 7.59637 13.0952L10.2608 16.1565L17.1769 4.70522C17.6871 3.91157 18.7075 3.62812 19.5011 4.13832C20.3515 4.59184 20.5782 5.66893 20.1247 6.46258Z" fill="#70E61C"/>
</svg>
