<svg width="54" height="61" viewBox="0 0 54 61" fill="none" xmlns="http://www.w3.org/2000/svg">
<path d="M0.511554 0.510573C0.511554 0.743169 0.500973 0.901758 0.511554 1.06035C0.913651 5.45854 1.31575 9.85673 1.70726 14.2655C2.2575 20.5033 2.79716 26.7411 3.3474 32.9684C3.97171 39.9674 4.6066 46.9559 5.20974 53.9549C5.25207 54.4624 5.43195 54.6844 5.90812 54.8113C12.6803 56.6721 19.4313 58.5434 26.2034 60.3936C26.6585 60.5205 27.2087 60.5416 27.6637 60.4148C34.457 58.554 41.2398 56.6615 48.0331 54.7902C48.5516 54.6421 48.7315 54.4095 48.7738 53.8809C48.9854 51.2378 49.2394 48.5841 49.4722 45.9409C49.8637 41.5639 50.2446 37.1868 50.6361 32.8098C51.0911 27.6715 51.5567 22.5438 52.0117 17.4055C52.3503 13.5783 52.7101 9.76157 53.0487 5.9343C53.2074 4.13696 53.345 2.33963 53.4931 0.5H0.511554V0.510573ZM43.2714 15.7774C42.9222 19.6469 42.573 23.5271 42.2238 27.3966C41.8217 31.8477 41.4196 36.2987 41.0175 40.7392C40.9012 42.0185 40.7318 43.2978 40.7001 44.5876C40.6789 45.2748 40.3827 45.4546 39.8113 45.6132C35.7268 46.7127 31.6529 47.844 27.579 48.9647C27.3992 49.0175 27.2299 49.081 27.05 49.1338C26.9865 49.1021 26.923 49.081 26.8489 49.0492C22.4893 47.8651 18.1298 46.6704 13.7702 45.4651C13.5903 45.4123 13.3575 45.1268 13.3363 44.9259C13.0295 41.6273 12.7544 38.3287 12.4581 34.9666H19.1138C19.2302 36.2882 19.3572 37.6309 19.463 38.9842C19.5583 40.2317 19.5477 40.2317 20.7222 40.5489C22.8279 41.1092 24.9442 41.659 27.05 42.2088L27.0288 42.1559C29.3356 41.5427 31.6423 40.9401 33.9491 40.2846C34.1607 40.2212 34.4041 39.8828 34.4359 39.6502C34.5734 38.6353 34.6475 37.6097 34.7321 36.5948C34.8697 34.956 35.0073 33.3173 35.1554 31.6045H27.0288L27.05 31.5622C26.9971 31.5622 26.9336 31.5622 26.8807 31.5622H12.1512C11.9502 29.3737 11.7597 27.2063 11.5586 24.9755H26.8912C26.9442 24.9755 27.0076 24.9755 27.0605 24.9755L27.0394 24.9332H35.748C35.949 22.6601 36.1501 20.4399 36.3511 18.1773H27.0288L27.05 18.135C26.9971 18.135 26.9336 18.135 26.8807 18.135C21.664 18.1456 16.4473 18.1456 11.2306 18.1562C11.1565 18.1562 11.0825 18.1245 10.9449 18.0822C10.7544 15.9254 10.5534 13.7686 10.3629 11.5483H26.8807C26.9336 11.5483 26.9971 11.5483 27.05 11.5483L27.0288 11.506H43.6206C43.5042 12.9862 43.3878 14.3818 43.2714 15.7774Z" fill="white"/>
</svg>
