<svg width="60" height="61" viewBox="0 0 60 61" fill="none" xmlns="http://www.w3.org/2000/svg">
<path d="M58.8784 27.8573L32.6467 1.62561C31.1459 0.124796 28.6663 0.124796 27.1655 1.62561L21.7495 7.0416L28.6663 13.9584C30.2976 13.4364 32.1247 13.7626 33.3645 15.0677C34.6696 16.3728 34.9958 18.1998 34.4738 19.8312L41.1296 26.487C42.7609 25.9649 44.588 26.2912 45.8931 27.5963C47.7202 29.3581 47.7202 32.2945 45.8931 34.1215C44.066 35.9486 41.1949 35.9486 39.3678 34.1215C37.9975 32.7512 37.6712 30.7936 38.389 29.0971L32.19 22.898V39.2113C32.6467 39.407 33.0383 39.7333 33.4298 40.0595C35.2569 41.8214 35.2569 44.7578 33.4298 46.5848C31.6027 48.3467 28.7316 48.3467 26.9045 46.5848C25.0774 44.7578 25.0774 41.8866 26.9045 40.0595C27.3613 39.6028 27.8833 39.2765 28.4053 39.0808V22.5718C27.8833 22.376 27.3613 21.9845 26.9045 21.593C25.5342 20.2227 25.2079 18.2651 25.9257 16.5685L19.0741 9.78222L1.12961 27.7268C-0.371206 29.2276 -0.371206 31.7072 1.12961 33.208L27.296 59.3744C28.7968 60.8752 31.2764 60.8752 32.7772 59.3744L58.8131 33.3385C60.3792 31.7724 60.3792 29.3581 58.8784 27.8573Z" fill="white"/>
</svg>
