<svg width="60" height="60" viewBox="0 0 60 60" fill="none" xmlns="http://www.w3.org/2000/svg">
<path d="M0 0C20.0135 0 39.9865 0 60 0C60 20.0135 60 40.027 60 60C40.027 60 20.0135 60 0 60C0 39.946 0 19.973 0 0ZM53.6799 31.7623C52.4645 29.5746 50.8035 28.0756 48.4132 27.549C46.7117 27.1438 45.0101 27.1438 43.3086 27.5084C37.7988 28.6428 35.449 35.287 39.0142 39.7029C40.2701 41.2424 41.9311 42.1742 43.6732 42.9845C45.2127 43.7137 46.7927 44.4024 48.3322 45.1722C49.3855 45.6988 49.8312 46.6712 49.7097 47.846C49.5881 49.0209 48.7778 49.6691 47.765 50.0338C45.4963 50.844 42.8629 50.1148 41.3234 48.2107C40.9993 47.8055 40.6752 47.3599 40.3511 46.9142C38.8116 47.8055 37.3126 48.6563 35.8136 49.5476C36.7454 51.3707 38.0419 52.8292 39.8244 53.8015C42.8629 55.4625 46.0635 55.7056 49.345 54.8953C51.4922 54.3687 53.3153 53.2748 54.4497 51.2897C56.5564 47.5219 55.341 42.8224 51.6138 40.5132C49.9527 39.5003 48.0891 38.8116 46.3471 37.9203C45.4963 37.4747 44.605 37.0695 43.8758 36.5024C42.5793 35.449 42.8224 33.3423 44.2809 32.5321C45.6988 31.7218 47.684 32.208 48.7778 33.6259C49.0209 33.9095 49.183 34.2336 49.4261 34.5577C50.8035 33.6259 52.2215 32.6941 53.6799 31.7623ZM15.8001 50.1553C16.6104 51.8974 17.7853 53.2748 19.4463 54.1661C21.5935 55.341 23.9433 55.5435 26.3336 55.1789C28.4808 54.8548 30.2633 53.8825 31.4382 51.9379C32.4105 50.3173 32.6941 48.5348 32.6941 46.6306C32.6941 40.4726 32.6941 34.3147 32.6941 28.1566C32.6941 27.9946 32.6941 27.792 32.6941 27.5895C30.79 27.5895 28.9669 27.5895 27.0628 27.5895C27.0628 27.8325 27.0628 28.0351 27.0628 28.2782C27.0628 34.3552 27.0628 40.3916 27.0628 46.4686C27.0628 47.0358 27.0223 47.6435 26.9413 48.2107C26.7792 49.1425 26.293 49.8312 25.3612 50.1148C23.6192 50.6415 22.2012 50.1148 21.1884 48.6158C20.9453 48.2107 20.7022 47.8055 20.4186 47.4004C18.8386 48.3322 17.3396 49.2235 15.8001 50.1553Z" fill="white"/>
</svg>
