<svg width="60" height="61" viewBox="0 0 60 61" fill="none" xmlns="http://www.w3.org/2000/svg">
<path d="M7.9 10.5068V51.0068C3 45.6068 0 38.5068 0 30.7068C0 22.9068 3 15.8068 7.9 10.5068Z" fill="white"/>
<path d="M11.1 14.9072L28.4 49.6072H11.1V14.9072Z" fill="white"/>
<path d="M30 45.7066L13 11.8066H47L30 45.7066Z" fill="white"/>
<path d="M30 0.707031C37.8 0.707031 44.9 3.70703 50.2 8.60703H9.79999C15.1 3.70703 22.2 0.707031 30 0.707031Z" fill="white"/>
<path d="M48.9 49.6072H31.6L48.9 14.9072V49.6072Z" fill="white"/>
<path d="M50.2 52.8066C44.9 57.7066 37.8 60.7066 30 60.7066C22.2 60.7066 15.1 57.7066 9.79999 52.8066H50.2Z" fill="white"/>
<path d="M52.1 50.9068V10.5068C57 15.8068 60 22.9068 60 30.7068C60 38.5068 57 45.6068 52.1 50.9068Z" fill="white"/>
<path d="M11.1 14.9062L28.4 49.6063H11.1V14.9062Z" fill="white"/>
<path d="M30 45.7066L13 11.8066H47L30 45.7066Z" fill="white"/>
<path d="M31.6 49.6063L48.9 14.9062V49.6063H31.6Z" fill="white"/>
<path d="M13 11.8066H47L30 45.7066L13 11.8066Z" fill="white"/>
</svg>
