<svg width="26" height="25" viewBox="0 0 26 25" fill="none" xmlns="http://www.w3.org/2000/svg">
<path d="M13.4753 0C6.57199 0 0.950684 5.6213 0.950684 12.5247C0.950684 19.428 6.57199 25.0493 13.4753 25.0493C20.3787 25.0493 26 19.428 26 12.5247C26 5.6213 20.3787 0 13.4753 0ZM14.856 21.499C14.4615 21.8442 14.0177 22.0414 13.4753 22.0414C12.9329 22.0414 12.4891 21.8442 12.0947 21.499C11.7002 21.1538 11.503 20.6607 11.503 20.0197C11.503 19.4773 11.7002 19.0335 12.0947 18.6391C12.4891 18.2446 12.9329 18.0473 13.5246 18.0473C14.0671 18.0473 14.5602 18.2446 14.9546 18.6391C15.3491 19.0335 15.5463 19.4773 15.5463 20.0197C15.4477 20.6607 15.2505 21.1538 14.856 21.499ZM15.3491 7.84024L14.7574 14.3491C14.7081 15.1381 14.5602 15.7298 14.3629 16.1243C14.1657 16.5187 13.8205 16.7653 13.3767 16.7653C12.8836 16.7653 12.5878 16.568 12.3905 16.1736C12.1933 15.7791 12.0947 15.1381 11.996 14.3491L11.5523 8.03747C11.4536 6.80473 11.4536 5.91716 11.4536 5.37475C11.4536 4.63511 11.6509 4.0927 12.0454 3.64892C12.4398 3.25444 12.9329 3.0572 13.574 3.0572C14.3136 3.0572 14.856 3.30375 15.1026 3.84615C15.3491 4.38856 15.497 5.1282 15.497 6.1144C15.4477 6.6568 15.4477 7.24852 15.3491 7.84024Z" fill="#E61C40"/>
</svg>
