<svg width="66" height="61" viewBox="0 0 66 61" fill="none" xmlns="http://www.w3.org/2000/svg">
<path fill-rule="evenodd" clip-rule="evenodd" d="M63.6942 16.4709L58.0124 24.4154L52.3306 16.4709H55.4285C55.1924 10.5681 50.3163 5.84592 44.3567 5.84592C39.3278 5.84592 35.063 9.22092 33.7155 13.8181C32.0763 13.2904 30.3814 12.957 28.6588 12.8043C28.8533 12.0681 29.1034 11.332 29.409 10.6237C30.2286 8.69314 31.3955 6.95703 32.882 5.47092C34.3684 3.98481 36.1049 2.80425 38.0359 1.9987C40.0363 1.13759 42.1618 0.707031 44.3567 0.707031C46.5516 0.707031 48.6771 1.13759 50.6775 1.98481C52.6085 2.80425 54.345 3.97092 55.8314 5.45703C57.3178 6.94314 58.4848 8.67925 59.3044 10.6098C60.0962 12.4709 60.5269 14.4431 60.5685 16.4709H63.6942Z" fill="white"/>
<path fill-rule="evenodd" clip-rule="evenodd" d="M55.748 60.7069V57.2903H36.1605C36.2994 57.2208 36.4383 57.1653 36.5772 57.0958C38.7027 56.0819 40.6614 54.7625 42.4118 53.1514C42.648 52.9291 42.8702 52.7208 43.0786 52.5125C43.3148 52.2764 43.5648 52.0264 43.801 51.7625C44.0788 51.4569 44.3567 51.1375 44.6067 50.818H55.748V47.4014L65.0556 54.0541L55.748 60.7069Z" fill="white"/>
<path fill-rule="evenodd" clip-rule="evenodd" d="M48.5242 36.0263C48.5242 38.9846 47.9408 41.8596 46.8016 44.5679C45.8292 46.8735 44.4678 48.9846 42.773 50.8318C42.5507 51.0679 42.3284 51.304 42.1062 51.5401C41.8978 51.7485 41.6894 51.9429 41.481 52.1513C39.8418 53.6651 38.008 54.9013 36.0076 55.8596C35.7298 55.9985 35.438 56.1235 35.1463 56.2485C35.1324 56.2485 35.1324 56.2624 35.1185 56.2624C33.4515 56.9707 31.6594 57.3179 29.8396 57.3179H0.944458V50.8596H27.7697C35.8826 50.8596 42.5368 44.3735 42.6479 36.2624C42.6479 36.1929 42.6479 36.1235 42.6479 36.054C42.6479 27.1929 35.4519 19.9985 26.5889 19.9985C17.7259 19.9707 10.5299 27.1513 10.5299 36.0263H14.2529L7.59868 45.3318L0.944458 36.0263H4.66749C4.66749 33.0679 5.25095 30.1929 6.39008 27.4846C7.50143 24.8735 9.07122 22.5263 11.0855 20.5124C13.0999 18.4985 15.4476 16.9151 18.0593 15.8179C20.7682 14.679 23.6438 14.0957 26.6028 14.0957C27.2001 14.0957 27.7836 14.1235 28.3671 14.1651C30.0897 14.304 31.7706 14.6374 33.4098 15.179C33.9933 15.3735 34.5629 15.5818 35.1324 15.8318C37.7441 16.9429 40.0918 18.5124 42.1062 20.5263C44.1205 22.5401 45.7042 24.8874 46.8016 27.4985C47.9408 30.1929 48.5242 33.0679 48.5242 36.0263Z" fill="white"/>
</svg>
