<svg width="60" height="60" viewBox="0 0 60 60" fill="none" xmlns="http://www.w3.org/2000/svg">
<path d="M59.9181 4.7749C59.4816 2.48295 57.7081 0.627558 55.4434 0.136426C55.3342 0.109141 55.2251 0.109141 55.0887 0.0818554C55.0614 0.0818554 55.0341 0.0272851 55.0068 0H4.96589C4.93861 0.0272851 4.91132 0.0818554 4.85675 0.0818554C2.59209 0.463847 0.682126 2.26467 0.163708 4.55662C0.136423 4.63847 0.081853 4.74761 0.0272827 4.85675V55.0341C0.0545678 55.0887 0.109138 55.116 0.109138 55.1705C0.654841 57.6808 2.18281 59.236 4.66576 59.8636C4.74761 59.8909 4.80218 59.9454 4.85675 60H55.0887C55.1432 59.9727 55.1705 59.9181 55.2251 59.8909C57.7081 59.3179 59.236 57.8172 59.8636 55.3342C59.8909 55.2524 59.8636 55.1433 59.8909 55.0614C59.8909 55.0341 59.9454 55.0068 59.9727 54.9795V4.93861C59.9727 4.88404 59.9181 4.85675 59.9181 4.7749ZM34.8158 33.2606H34.5157C32.251 33.2606 29.9591 33.2606 27.6944 33.2606C27.5853 33.2606 27.4761 33.2606 27.367 33.2606C27.367 33.2879 27.3397 33.2879 27.3397 33.3151C27.3397 33.4243 27.3397 33.5334 27.3397 33.6426V54.6794H21.3643V33.2879H13.8608V28.513H34.7885V33.2606H34.8158ZM54.9523 47.5307C54.8977 48.4584 54.7613 49.3588 54.3793 50.2319C54.2701 50.5048 54.1883 50.7503 54.0518 51.0232C53.5607 52.06 52.7422 52.7967 51.7872 53.397C50.6958 54.0791 49.4952 54.4611 48.2401 54.7067C46.8486 54.9795 45.457 55.0614 44.0382 55.0068C43.3561 54.9795 42.6739 54.9795 41.9918 54.8977C40.382 54.7067 38.7995 54.352 37.3261 53.6426C37.2442 53.6153 37.1351 53.4789 37.1351 53.397C37.1351 51.6235 37.1351 49.8499 37.1351 48.0764C37.1351 48.0491 37.1351 48.0218 37.1351 47.9673C37.5716 48.2674 38.0082 48.5675 38.4447 48.8131C39.5089 49.4407 40.6821 49.8772 41.8827 50.1501C42.9195 50.3956 43.9563 50.4229 44.9932 50.3684C45.7845 50.3411 46.5757 50.1501 47.2851 49.7954C47.9127 49.4679 48.4311 49.0314 48.5675 48.2947C48.704 47.6398 48.6494 46.985 48.2674 46.412C47.7217 45.5935 46.9577 45.075 46.1119 44.6385C45.1569 44.1746 44.2019 43.7654 43.2196 43.3288C41.7735 42.6739 40.3547 41.9645 39.1814 40.8731C38.2265 39.9727 37.5171 38.9086 37.1896 37.6262C36.9986 36.8622 36.9441 36.0982 36.9713 35.3342C36.9986 33.4516 37.6808 31.8417 39.0177 30.5048C40.1091 29.4134 41.4461 28.7585 42.9195 28.3765C43.9291 28.131 44.9386 27.94 45.9754 27.9127C46.7121 27.9127 47.4488 27.8308 48.1583 27.8581C49.2769 27.8854 50.3684 27.94 51.4598 28.2128C52.1692 28.4038 52.9059 28.5948 53.6153 28.7585C53.7517 28.7858 53.8063 28.8677 53.8063 29.0314C53.8063 30.7231 53.8063 32.442 53.8063 34.1337C53.8063 34.1883 53.8063 34.2428 53.779 34.3247C53.5607 34.1883 53.3697 34.0791 53.1787 33.97C52.3056 33.4789 51.3779 33.1514 50.4229 32.9059C49.3588 32.6603 48.2947 32.4966 47.2033 32.5239C46.4666 32.5512 45.7026 32.6603 45.0205 32.9059C44.1746 33.206 43.4925 33.6971 43.1924 34.5975C42.9468 35.307 43.1378 35.9072 43.5744 36.4802C44.1201 37.1896 44.8568 37.6808 45.648 38.0628C46.7121 38.5812 47.8035 39.0177 48.8404 39.5089C50.0409 40.0819 51.2415 40.6548 52.251 41.5007C53.1241 42.2374 53.9154 43.0559 54.352 44.1473C54.5975 44.8022 54.8158 45.4843 54.8158 46.221C54.925 46.6576 54.9795 47.0941 54.9523 47.5307Z" fill="white"/>
</svg>
